<?xml version="1.0" standalone="no"?>
<!DOCTYPE svg PUBLIC "-//W3C//DTD SVG 20010904//EN"
 "http://www.w3.org/TR/2001/REC-SVG-20010904/DTD/svg10.dtd">
<svg version="1.0" xmlns="http://www.w3.org/2000/svg"
 width="2209.000000pt" height="727.000000pt" viewBox="0 0 2209.000000 727.000000"
 preserveAspectRatio="xMidYMid meet">

<g transform="translate(0.000000,727.000000) scale(0.100000,-0.100000)"
fill="#000000" stroke="none">
<path d="M15725 5338 c-137 -11 -228 -52 -309 -138 -93 -99 -126 -210 -133
-437 l-5 -162 -112 -3 -111 -3 -14 -30 c-22 -45 -20 -229 2 -272 l18 -33 109
0 110 0 2 -627 3 -628 30 -15 c43 -21 307 -21 350 0 l30 15 3 628 2 627 150 0
150 0 17 27 c15 22 18 49 18 149 0 169 6 164 -188 164 l-150 0 5 134 c5 158
27 218 88 248 43 22 148 23 205 3 90 -33 105 -13 105 138 0 136 -14 165 -90
190 -70 24 -183 34 -285 25z"/>
<path d="M16367 5256 c-85 -31 -111 -89 -105 -230 4 -106 18 -135 78 -171 42
-24 189 -33 266 -16 102 23 137 77 138 211 1 99 -22 161 -72 192 -32 20 -52
23 -152 26 -80 1 -127 -2 -153 -12z"/>
<path d="M3180 5195 c-8 -2 -49 -9 -90 -15 -441 -71 -753 -375 -855 -835 -22
-99 -31 -370 -15 -491 37 -298 174 -547 387 -705 301 -224 810 -269 1294 -113
108 35 139 55 158 107 7 19 11 191 11 503 0 510 -1 523 -51 558 -21 14 -70 16
-426 16 l-403 0 -17 -27 c-26 -39 -26 -237 0 -276 l17 -27 218 -2 217 -3 0
-255 0 -255 -85 -29 c-155 -54 -371 -36 -525 42 -248 125 -381 431 -345 791
26 257 147 464 334 572 230 133 564 115 890 -47 60 -30 117 -54 128 -54 34 0
51 62 51 186 -1 139 -14 172 -90 221 -69 44 -161 79 -293 110 -89 21 -135 25
-300 28 -107 2 -202 2 -210 0z"/>
<path d="M11015 5193 c-318 -41 -574 -184 -744 -417 -133 -181 -211 -449 -211
-726 0 -464 188 -809 536 -983 304 -152 743 -164 1154 -32 78 26 114 43 135
65 l30 31 3 487 c2 328 0 499 -8 524 -6 20 -22 46 -37 57 -25 20 -37 21 -429
21 l-404 0 -17 -27 c-24 -36 -26 -222 -3 -268 l15 -30 223 -3 222 -2 0 -255 0
-254 -43 -19 c-75 -33 -149 -46 -257 -45 -294 2 -513 152 -608 416 -44 120
-55 212 -49 384 4 110 10 167 27 223 68 236 227 402 450 472 64 20 96 23 220
23 200 0 326 -32 526 -132 61 -30 120 -53 130 -51 34 6 48 55 48 173 1 126
-11 173 -55 209 -71 60 -255 125 -429 151 -86 14 -347 18 -425 8z"/>
<path d="M7305 5153 c-450 -55 -823 -318 -1024 -721 -98 -196 -132 -354 -127
-602 4 -183 23 -291 76 -428 137 -353 429 -638 785 -765 88 -31 243 -65 313
-68 28 -2 52 -5 52 -9 0 -3 -13 -16 -30 -28 -16 -12 -42 -43 -57 -69 -24 -40
-28 -59 -28 -118 1 -103 44 -174 135 -221 48 -25 153 -25 201 -1 95 47 144
134 137 240 -5 76 -35 130 -100 177 -22 17 -38 30 -35 30 25 0 176 35 239 55
469 152 806 548 889 1043 5 31 9 121 9 199 1 270 -64 484 -215 714 -73 112
-200 246 -310 327 -151 111 -372 204 -564 236 -85 14 -266 19 -346 9z m268
-161 c51 -56 63 -175 24 -233 -26 -38 -50 -46 -147 -48 -101 -2 -165 -54 -190
-153 -17 -65 -6 -121 38 -209 20 -41 38 -77 40 -81 2 -5 -11 -8 -30 -8 -60 0
-212 -37 -279 -67 -113 -52 -187 -136 -236 -270 -84 -233 -25 -445 149 -532
105 -53 188 -43 365 43 154 75 215 82 333 39 70 -26 83 -36 190 -145 131 -133
166 -151 241 -129 55 17 138 96 177 169 118 222 75 479 -100 608 -71 52 -137
77 -247 94 -107 16 -135 37 -134 102 1 53 15 83 44 98 11 6 74 15 140 20 135
11 190 29 231 78 47 56 61 112 55 210 -3 48 -8 95 -13 106 -15 38 21 9 91 -72
313 -362 368 -882 139 -1301 -162 -297 -444 -505 -779 -576 -119 -25 -119 -25
-156 52 -120 251 -433 327 -663 162 l-56 -40 -48 35 c-73 53 -211 202 -266
286 -142 216 -202 453 -184 725 5 86 29 213 44 237 3 4 15 1 27 -6 26 -17 64
-22 92 -13 29 10 49 49 75 147 25 95 43 135 63 143 7 3 54 -8 103 -24 107 -35
156 -36 208 -6 75 42 91 108 66 271 -14 94 -9 128 30 189 26 41 36 48 97 67
103 33 206 48 334 49 99 1 118 -2 132 -17z"/>
<path d="M5015 4626 c-202 -39 -358 -142 -465 -307 -105 -162 -157 -426 -132
-671 38 -386 195 -589 519 -675 87 -23 118 -26 273 -26 182 -1 274 10 429 53
106 30 150 55 167 95 16 40 19 200 4 239 -13 35 -52 34 -165 -4 -247 -83 -466
-90 -612 -19 -110 53 -171 153 -181 297 l-5 72 469 0 c525 0 521 0 557 70 26
50 19 289 -12 405 -63 239 -218 399 -446 460 -83 22 -310 28 -400 11z m264
-302 c118 -35 201 -169 201 -324 l0 -40 -315 0 -315 0 0 39 c0 55 34 159 70
213 72 109 218 154 359 112z"/>
<path d="M13015 4627 c-81 -27 -144 -77 -234 -185 l-61 -73 0 73 c0 40 -5 90
-10 110 -13 47 -47 58 -175 58 -104 0 -161 -13 -175 -40 -7 -12 -9 -280 -8
-786 l3 -767 28 -21 c26 -19 41 -21 182 -21 141 0 156 2 182 21 l28 21 3 482
2 482 40 59 c117 172 227 227 366 185 70 -21 101 -19 115 8 17 31 24 271 10
323 -10 36 -17 44 -54 59 -55 23 -190 29 -242 12z"/>
<path d="M13956 4630 c-171 -27 -363 -100 -419 -158 -34 -35 -47 -103 -36
-191 14 -121 50 -136 177 -72 162 81 323 119 455 107 167 -15 227 -82 235
-263 3 -57 3 -103 1 -103 -2 0 -96 -5 -209 -10 -223 -10 -323 -26 -440 -71
-228 -88 -339 -282 -301 -528 24 -152 112 -272 246 -336 102 -48 163 -60 300
-59 97 1 133 5 185 23 88 30 164 74 233 133 l57 49 0 -70 c0 -82 10 -97 76
-107 77 -11 218 0 248 20 l27 17 -3 592 c-4 576 -4 594 -26 672 -51 184 -158
283 -361 336 -88 23 -347 34 -445 19z m414 -1084 l0 -134 -57 -52 c-32 -28
-87 -65 -123 -83 -56 -28 -75 -32 -140 -31 -89 0 -144 24 -187 81 -25 33 -28
44 -28 119 0 76 2 85 30 121 63 79 168 109 388 112 l117 1 0 -134z"/>
<path d="M17592 4630 c-128 -18 -304 -76 -383 -125 -22 -14 -49 -40 -59 -58
-37 -60 -21 -241 23 -269 24 -15 55 -7 148 36 167 78 247 99 385 100 115 1
123 0 179 -29 84 -43 109 -93 113 -231 l4 -101 -63 -6 c-34 -4 -107 -7 -163
-7 -254 0 -473 -64 -592 -173 -97 -88 -137 -189 -136 -343 1 -107 12 -157 55
-237 76 -145 233 -229 452 -243 165 -11 336 48 458 156 l57 52 0 -70 c0 -50 5
-75 15 -86 21 -21 89 -29 200 -24 151 6 137 -65 132 643 -3 539 -5 606 -21
660 -73 247 -244 351 -591 360 -82 2 -178 0 -213 -5z m408 -1084 l0 -134 -62
-56 c-92 -84 -154 -111 -253 -111 -116 1 -181 38 -211 122 -27 77 -11 167 39
221 30 33 82 58 147 71 85 17 97 18 223 20 l117 1 0 -134z"/>
<path d="M19228 4630 c-231 -42 -378 -153 -439 -329 -23 -65 -27 -212 -9 -282
47 -173 153 -259 479 -389 112 -45 143 -62 184 -101 l49 -48 -4 -59 c-5 -73
-31 -112 -96 -144 -40 -20 -62 -23 -152 -23 -121 0 -182 17 -334 91 -98 48
-121 49 -137 7 -12 -32 -12 -215 0 -246 22 -56 93 -96 239 -133 284 -72 599
-16 755 134 108 104 159 264 137 424 -14 93 -47 164 -107 229 -70 76 -147 121
-322 190 -178 70 -204 82 -246 117 -42 34 -54 60 -55 113 -1 168 233 209 505
89 105 -47 122 -49 135 -14 15 39 12 209 -4 249 -18 41 -83 77 -194 106 -87
23 -306 34 -384 19z"/>
<path d="M16385 4606 c-5 -3 -22 -7 -37 -10 -62 -14 -58 37 -58 -811 l0 -774
33 -18 c44 -24 305 -26 352 -3 l30 15 3 782 2 782 -32 18 c-26 13 -62 18 -158
20 -69 1 -129 1 -135 -1z"/>
<path d="M8758 3225 c-15 -9 -58 -61 -95 -118 -94 -141 -274 -322 -410 -411
-142 -93 -246 -141 -460 -211 -8 -3 -8 -14 3 -42 29 -81 13 -205 -36 -273
l-20 -28 122 -91 c73 -55 115 -92 107 -95 -8 -3 -104 -31 -214 -62 -110 -31
-210 -64 -223 -72 -32 -21 -53 -65 -53 -115 0 -24 40 -182 95 -372 90 -314 96
-331 130 -362 30 -28 43 -33 83 -33 29 0 60 7 79 19 33 20 64 75 64 112 0 13
-32 135 -71 272 -39 136 -69 253 -67 259 4 11 506 158 541 158 24 0 34 -30 15
-44 -9 -6 -48 -20 -87 -30 -39 -10 -71 -24 -71 -30 0 -18 117 -421 129 -443
17 -34 69 -72 106 -79 26 -4 110 16 366 91 184 54 343 101 355 105 28 11 63
48 75 78 14 35 -6 96 -41 125 -54 46 -70 44 -346 -33 -141 -39 -258 -69 -262
-66 -3 3 -11 115 -19 248 -7 135 -20 273 -29 311 -32 137 -100 254 -205 352
-57 52 -62 59 -45 69 150 90 269 181 377 287 138 137 289 352 289 413 0 89
-105 152 -182 111z"/>
<path d="M6532 2643 c-66 -32 -84 -126 -35 -184 34 -40 246 -144 385 -188 90
-28 325 -77 334 -69 2 2 -3 26 -11 53 -17 56 -19 106 -5 154 5 19 8 36 6 38
-2 2 -45 13 -95 23 -132 27 -267 74 -388 136 -112 58 -139 63 -191 37z"/>
</g>
</svg>
